<svg width="128" height="128" 
    xmlns="http://www.w3.org/2000/svg">
    <!-- Created with Method Draw - http://github.com/duopixel/Method-Draw/ -->

    <g>
        <title>background</title>
        <rect fill="none" id="canvas_background" height="130" width="130" y="-1" x="-1"/>
        <g display="none" id="canvasGrid">
            <rect fill="url(#gridpattern)" stroke-width="0" y="0" x="0" height="100%" width="100%" id="svg_2"/>
        </g>
    </g>
    <g>
        <title>Layer 1</title>
        <text stroke="#3c6a8c" transform="matrix(4.032698703957932,0,0,3.9909593193646775,-154.56936281049968,-136.48381179567036) " xml:space="preserve" text-anchor="start" font-family="Helvetica, Arial, sans-serif" font-size="15" id="svg_1" y="51.931489" x="42.942437" fill="#2f5876">@</text>
        <path stroke="#2f5876" id="svg_3" d="m126.915614,112.304238l-33.750146,-34.354142c4.546729,-7.631548 7.213237,-16.559973 7.217962,-26.134395c-0.004725,-27.927777 -22.222227,-50.547712 -49.644797,-50.557408c-27.427295,0.009696 -49.654247,22.629631 -49.654247,50.552598c0,27.908461 22.226952,50.528396 49.654247,50.528396c9.410852,0 18.182265,-2.714161 25.679672,-7.342259l32.475623,31.744678l18.021685,-14.437468zm-115.879131,-61.800446c1.255548,-22.48758 8.62272,-24.771753 28.141524,-35.190141c19.518804,-10.418388 52.508947,16.614389 52.537371,33.883042c0.028424,17.268653 -9.906692,41.677385 -42.265443,41.715942c-32.358677,0.038557 -39.669,-17.921413 -38.413452,-40.408918l0,0.000075z" fill="#2f5876"/>
    </g>
</svg>